#!OML:ASF E:\Style4\Style4.ASF
:FULLY-SPECIFIED
:DEGREES
3474
root -0.5319 17.3918 -2.44926 7.0173 11.3471 1.20164
lowerback 16.5511 2.98632 -2.104
upperback 9.18543 3.64402 -2.86009
thorax 0.591843 1.85229 -2.38717
lowerneck 1.76789 -1.55317 -5.20018
upperneck 4.26602 -2.44941 11.266
head 1.29636 -1.17893 4.67458
rclavicle 7.15625e-015 -1.59028e-014
rhumerus -41.1669 53.0497 -70.8281
rradius 100.412
rwrist -68.2895
rhand 17.1689 -2.33353
rfingers 7.12502
rthumb 41.8891 -26.9606
lclavicle 7.15625e-015 -1.59028e-014
lhumerus -21.5796 -36.8968 83.7993
lradius 75.8677
lwrist 12.3619
lhand -5.6666 33.8175
lfingers 7.12502
lthumb 20.1528 62.7922
rfemur -30.264 -9.11271 21.9288
rtibia 45.0609
rfoot -21.3919 -16.7422
rtoes -4.67174
lfemur -31.2168 -4.51044 -17.8027
ltibia 41.254
lfoot -16.6925 2.26828
ltoes -12.5243
3475
root -0.560954 17.418 -2.44167 7.19047 11.7715 1.16939
lowerback 16.4406 3.1563 -1.95201
upperback 9.17105 3.89274 -2.98462
thorax 0.660439 1.98728 -2.63563
lowerneck 1.44273 -1.65253 -5.36629
upperneck 4.6245 -2.63678 12.0755
head 1.34391 -1.23457 4.48619
rclavicle -2.54444e-014 1.11319e-014
rhumerus -41.4598 53.6657 -70.3509
rradius 101.49
rwrist -68.902
rhand 18.6309 -2.41121
rfingers 7.12502
rthumb 43.2576 -26.5655
lclavicle -2.54444e-014 1.11319e-014
lhumerus -21.6336 -36.8807 83.852
lradius 75.9903
lwrist 12.379
lhand -4.92805 33.3665
lfingers 7.12502
lthumb 20.8625 62.2648
rfemur -30.2076 -9.14292 22.0855
rtibia 44.6395
rfoot -21.0368 -17.1362
rtoes -5.28119
lfemur -31.1707 -4.65085 -17.6322
ltibia 40.6991
lfoot -16.2739 2.00281
ltoes -11.9238
3476
root -0.589053 17.4435 -2.42872 7.40041 12.0073 1.21878
lowerback 16.1099 3.418 -1.97853
upperback 9.23706 4.2503 -3.08579
thorax 0.922525 2.16971 -2.75782
lowerneck 1.3933 -1.74075 -5.42857
upperneck 4.48299 -2.75285 12.4219
head 1.32573 -1.29004 4.60108
rclavicle 3.95581e-014 1.78906e-014
rhumerus -41.3948 54.2285 -69.5003
rradius 102.453
rwrist -69.6082
rhand 20.1959 -2.55051
rfingers 7.12502
rthumb 44.7175 -26.1605
lclavicle 3.95581e-014 1.78906e-014
lhumerus -21.6505 -37.0241 83.9487
lradius 76.1732
lwrist 12.9771
lhand -4.35998 33.2898
lfingers 7.12502
lthumb 21.4082 62.1271
rfemur -30.1617 -9.06369 22.1358
rtibia 44.2811
rfoot -20.9661 -17.2021
rtoes -4.1918
lfemur -31.0826 -4.66659 -17.5707
ltibia 40.135
lfoot -16.0032 1.837
ltoes -11.8798
3477
root -0.616865 17.4625 -2.42169 7.64721 12.1993 1.31435
lowerback 15.9227 3.68434 -2.04844
upperback 9.19315 4.59661 -3.19774
thorax 0.990949 2.34414 -2.87622
lowerneck 1.36682 -1.81756 -5.42914
upperneck 4.48405 -2.86336 12.6975
head 1.34371 -1.33952 4.68417
rclavicle -8.8658e-014 2.38542e-014
rhumerus -41.3695 54.8213 -68.7129
rradius 103.268
rwrist -70.2708
rhand 20.8326 -2.12452
rfingers 7.12502
rthumb 45.3099 -25.501
lclavicle -8.8658e-014 2.38542e-014
lhumerus -21.8084 -37.2529 84.1228
lradius 76.2928
lwrist 13.7588
lhand -4.40946 32.9128
lfingers 7.12502
lthumb 21.3607 61.7555
rfemur -30.1825 -8.94388 22.1307
rtibia 43.9952
rfoot -21.0443 -17.1523
rtoes -2.90239
lfemur -31.0493 -4.61821 -17.5724
ltibia 39.5792
lfoot -15.7282 1.68721
ltoes -11.946
3478
root -0.643187 17.4829 -2.41526 7.77159 12.4937 1.38595
lowerback 15.972 3.88734 -1.99229
upperback 9.12128 4.86486 -3.32422
thorax 0.915766 2.4851 -3.0861
lowerneck 1.35017 -1.91234 -5.4063
upperneck 4.51584 -3.0002 12.9472
head 1.37123 -1.40138 4.75512
rclavicle -1.0138e-014 1.11319e-014
rhumerus -41.2419 55.4162 -67.9371
rradius 104.02
rwrist -70.9302
rhand 20.9878 -1.67131
rfingers 7.12502
rthumb 45.4542 -24.9897
lclavicle -1.0138e-014 1.11319e-014
lhumerus -22.0446 -37.4569 84.2396
lradius 76.4721
lwrist 14.2218
lhand -4.89986 31.8525
lfingers 7.12502
lthumb 20.8896 60.7478
rfemur -30.1187 -8.86469 22.1266
rtibia 43.7723
rfoot -20.9322 -17.3089
rtoes -2.82576
lfemur -30.9086 -4.71734 -17.5401
ltibia 39.0332
lfoot -15.4381 1.56883
ltoes -11.8638
3479
root -0.668554 17.502 -2.40505 7.83338 12.7885 1.4175
lowerback 16.0092 4.09028 -1.86196
upperback 9.08654 5.1456 -3.43838
thorax 0.894371 2.63531 -3.32404
lowerneck 1.42674 -2.02707 -5.32474
upperneck 4.44139 -3.15311 13.1285
head 1.35243 -1.47741 4.79596
rclavicle -3.24019e-014 6.36111e-015
rhumerus -40.8936 55.954 -67.008
rradius 104.707
rwrist -71.6824
rhand 21.6497 -1.98096
rfingers 7.12502
rthumb 46.0687 -25.0469
lclavicle -3.24019e-014 6.36111e-015
lhumerus -22.3207 -37.7914 84.336
lradius 76.738
lwrist 14.702
lhand -5.17955 31.0044
lfingers 7.12502
lthumb 20.6209 59.9291
rfemur -30.0369 -8.77597 22.1591
rtibia 43.615
rfoot -20.6763 -17.616
rtoes -3.53744
lfemur -30.7201 -4.80383 -17.4721
ltibia 38.5375
lfoot -15.2098 1.48508
ltoes -12.3004
3480
root -0.691213 17.5172 -2.39832 8.05456 13.085 1.56032
lowerback 15.9349 4.27558 -1.808
upperback 9.0189 5.39678 -3.58005
thorax 0.892963 2.76821 -3.53654
lowerneck 1.46417 -2.14906 -5.22998
upperneck 4.37383 -3.3144 13.2822
head 1.34261 -1.55643 4.82549
rclavicle 4.85035e-014 -7.67309e-014
rhumerus -40.3017 56.4832 -65.9102
rradius 105.215
rwrist -72.4758
rhand 22.8366 -2.11227
rfingers 7.12502
rthumb 47.1678 -24.7042
lclavicle 4.85035e-014 -7.67309e-014
lhumerus -22.6431 -38.126 84.4198
lradius 77.0356
lwrist 15.1763
lhand -5.24648 30.7678
lfingers 7.12502
lthumb 20.5566 59.6994
rfemur -30.1478 -8.73675 22.0783
rtibia 43.5116
rfoot -20.4245 -17.8394
rtoes -4.07598
lfemur -30.7269 -4.94087 -17.523
ltibia 38.0926
lfoot -14.9972 1.45147
ltoes -12.6936
3481
root -0.71601 17.5265 -2.39641 8.24806 13.3972 1.70718
lowerback 15.9513 4.43422 -1.80216
upperback 8.94206 5.6019 -3.68368
thorax 0.825167 2.87457 -3.68365
lowerneck 1.52961 -2.2861 -5.14904
upperneck 4.27698 -3.48993 13.3153
head 1.31958 -1.64653 4.82041
rclavicle -9.93923e-016 -4.59193e-014
rhumerus -39.3998 57.055 -64.5765
rradius 105.597
rwrist -73.2591
rhand 23.9403 -1.93812
rfingers 7.12502
rthumb 48.1865 -24.0635
lclavicle -9.93923e-016 -4.59193e-014
lhumerus -23.0163 -38.4539 84.5556
lradius 77.2343
lwrist 15.8859
lhand -5.27441 30.4354
lfingers 7.12502
lthumb 20.5297 59.3699
rfemur -30.2623 -8.66607 21.9801
rtibia 43.4707
rfoot -20.4237 -17.9406
rtoes -3.71313
lfemur -30.7767 -5.06289 -17.5781
ltibia 37.7315
lfoot -14.7086 1.30626
ltoes -12.4822
3482
root -0.739398 17.5332 -2.39278 8.34496 13.6404 1.7989
lowerback 15.9654 4.59723 -1.78444
upperback 8.94764 5.81872 -3.7322
thorax 0.843411 2.98664 -3.77695
lowerneck 1.63216 -2.38784 -5.14903
upperneck 3.98659 -3.60073 13.3477
head 1.22911 -1.71348 4.83078
rclavicle 5.12864e-014 -5.54609e-014
rhumerus -38.0092 57.5881 -62.7959
rradius 105.935
rwrist -74.053
rhand 24.8234 -1.87399
rfingers 7.12502
rthumb 48.999 -23.6069
lclavicle 5.12864e-014 -5.54609e-014
lhumerus -23.2355 -38.6807 84.657
lradius 77.3876
lwrist 16.5988
lhand -4.66218 30.2497
lfingers 7.12502
lthumb 21.118 59.1196
rfemur -30.3355 -8.49927 21.9086
rtibia 43.5014
rfoot -20.5083 -18.0236
rtoes -3.09504
lfemur -30.7724 -5.13119 -17.5811
ltibia 37.4607
lfoot -14.4929 1.15138
ltoes -12.1324
3483
root -0.757074 17.5377 -2.38558 8.44729 13.801 1.89073
lowerback 15.9135 4.77709 -1.73575
upperback 8.96778 6.06548 -3.78649
thorax 0.917931 3.11547 -3.89067
lowerneck 1.73292 -2.47091 -5.14543
upperneck 3.66192 -3.68279 13.3776
head 1.12618 -1.76727 4.84059
rclavicle -5.10877e-014 3.91606e-014
rhumerus -36.3297 58.0707 -60.7452
rradius 106.186
rwrist -74.8833
rhand 25.756 -1.95017
rfingers 7.12502
rthumb 49.8544 -23.249
lclavicle -5.10877e-014 3.91606e-014
lhumerus -23.5229 -38.7665 84.7696
lradius 77.7006
lwrist 16.9489
lhand -3.86689 30.4482
lfingers 7.12502
lthumb 21.8818 59.2309
rfemur -30.4521 -8.33869 21.8207
rtibia 43.6308
rfoot -20.5116 -18.0999
rtoes -3.20316
lfemur -30.7845 -5.14906 -17.6086
ltibia 37.2888
lfoot -14.4417 1.10433
ltoes -12.5525
3484
root -0.772011 17.5392 -2.37994 8.54949 13.9821 1.98559
lowerback 15.8624 4.93495 -1.58969
upperback 8.991 6.29688 -3.86695
thorax 1.00915 3.24185 -4.08267
lowerneck 1.77282 -2.60521 -5.11024
upperneck 3.46401 -3.84369 13.366
head 1.07668 -1.85421 4.83018
rclavicle 5.96354e-015 3.97569e-016
rhumerus -34.5285 58.4449 -58.6714
rradius 106.335
rwrist -75.6585
rhand 26.5075 -2.01344
rfingers 7.12502
rthumb 50.5415 -22.9471
lclavicle 5.96354e-015 3.97569e-016
lhumerus -23.9021 -38.9257 84.8695
lradius 78.0963
lwrist 17.2462
lhand -3.63472 30.6566
lfingers 7.12502
lthumb 22.1047 59.4131
rfemur -30.5756 -8.29373 21.7423
rtibia 43.8543
rfoot -20.6483 -18.0672
rtoes -3.10415
lfemur -30.8476 -5.20508 -17.6514
ltibia 37.2217
lfoot -14.4762 1.13915
ltoes -13.4291
3485
root -0.785842 17.5331 -2.38118 8.76085 14.2405 2.19774
lowerback 15.8052 5.06971 -1.46478
upperback 8.97113 6.49379 -3.99737
thorax 1.06124 3.35153 -4.31182
lowerneck 1.89745 -2.79904 -5.00986
upperneck 3.21786 -4.0804 13.3636
head 1.00507 -1.98245 4.81248
rclavicle 6.16232e-015 -6.36111e-015
rhumerus -32.7116 58.7104 -56.6174
rradius 106.388
rwrist -76.3819
rhand 27.0684 -1.88936
rfingers 7.12502
rthumb 51.053 -22.5411
lclavicle 6.16232e-015 -6.36111e-015
lhumerus -24.2148 -39.307 84.8399
lradius 78.391
lwrist 17.6086
lhand -3.62623 30.4226
lfingers 7.12502
lthumb 22.1128 59.1781
rfemur -30.8868 -8.31331 21.5539
rtibia 44.1832
rfoot -20.9108 -17.9515
rtoes -2.44822
lfemur -31.1098 -5.36719 -17.8021
ltibia 37.2693
lfoot -14.417 1.1124
ltoes -13.6838
3486
root -0.797994 17.5238 -2.38719 8.90506 14.5049 2.31731
lowerback 15.856 5.17958 -1.22861
upperback 8.94191 6.66708 -4.07206
thorax 1.05246 3.45148 -4.55158
lowerneck 2.08026 -2.98 -4.98299
upperneck 2.94907 -4.29921 13.3514
head 0.91655 -2.10572 4.80598
rclavicle 7.40473e-014 -5.28767e-014
rhumerus -30.591 58.9438 -54.2479
rradius 106.335
rwrist -77.0923
rhand 27.6262 -1.77534
rfingers 7.12502
rthumb 51.5607 -22.1384
lclavicle 7.40473e-014 -5.28767e-014
lhumerus -24.4617 -39.6649 84.7949
lradius 78.6635
lwrist 17.9985
lhand -3.66393 30.3108
lfingers 7.12502
lthumb 22.0767 59.0706
rfemur -31.213 -8.32559 21.4501
rtibia 44.5734
rfoot -21.1764 -17.8502
rtoes -1.8938
lfemur -31.4181 -5.52619 -17.8638
ltibia 37.4285
lfoot -14.2861 0.998006
ltoes -13.486
